<svg t="1757306553507" class="icon" viewBox="0 0 1024 1024" version="1.1" xmlns="http://www.w3.org/2000/svg" p-id="25356" width="32" height="32"><path d="M844.16 0v310.272H960V751.786667h-125.226667V1024l-300.245333-264.277333v262.186666h-46.549333v-262.485333L187.392 1024v-275.84H64V306.688h123.050667V0l300.928 277.077333V8.106667h46.506666v276.906666L844.202667 0z m-309.632 385.877333v312.277334l253.696 223.317333V616.106667l-253.696-230.272z m-46.890667-3.413333l-253.696 230.314667v308.693333l253.696-223.317333V382.506667z m347.136 323.413333h78.677334V356.224H574.293333l260.48 236.373333v113.28z m-383.232-353.28H110.506667v349.653334h76.8v-109.909334l264.192-239.786666zM233.6 105.642667v200.96h218.24l-218.24-200.96z m564.010667 0l-218.24 200.96h218.24v-200.96z" fill="#22B8CD" p-id="25357"></path></svg>