<svg t="1757306071108" class="icon" viewBox="0 0 1024 1024" version="1.1" xmlns="http://www.w3.org/2000/svg" p-id="16425" width="32" height="32"><path d="M432 1015.467C394.133 1008 357.867 995.2 339.2 982.4c-28.8-19.733-70.4-81.067-83.2-122.667-12.267-39.466-14.4-125.333-4.267-154.133 5.334-14.933 9.067-17.6 22.934-17.6 11.733 0 17.6 3.2 21.333 12.267 3.733 8.533 13.333 13.866 34.667 18.666 16 4.267 34.133 11.734 40 17.067 5.866 4.8 20.266 12.267 32 16s26.133 11.2 32 16.533S458.133 780.8 473.6 784c14.933 3.733 27.733 8 27.733 10.667 0 5.866 30.934 21.333 43.2 21.333 5.334 0 12.8 4.267 16.534 9.6 8 10.667 32.533 22.4 47.466 22.4 13.334 0 43.2 14.933 49.067 24.533 2.133 4.267 9.067 7.467 14.933 7.467 10.134 0 26.134 7.467 42.134 19.2 4.266 3.2 14.933 7.467 23.466 9.6 16.534 3.733 29.867 14.933 29.867 24 0 3.2 2.667 5.867 5.333 5.867 14.4 0 2.134 11.2-28.8 26.133-84.266 40.533-118.4 48.533-216.533 51.2-45.333 1.067-88.533 0.533-96-0.533zM77.867 249.6c8-12.8 21.333-32 29.866-42.667 15.467-19.733 16.534-20.266 52.8-20.266 36.8 0 72.534 10.133 80.534 22.933 2.133 3.733 4.266 13.867 4.266 22.4 0 13.867-2.666 17.067-19.733 22.933-33.6 11.734-65.6 16.534-115.2 16.534L64 272l13.867-22.4z" fill="#15D26C" p-id="16426"></path><path d="M416 1010.667c-16-3.734-37.333-8.534-46.4-10.667-9.6-2.133-17.6-5.867-17.6-8s-4.8-5.333-10.667-6.933c-7.466-1.6-10.666-7.467-10.666-16.534 0-11.2-2.667-13.866-13.334-13.866-8 0-14.933-3.734-17.066-9.067-2.134-4.8-8-13.333-13.334-18.667-9.6-9.6-13.866-46.933-5.333-46.933 2.133 0.533 14.933 16.533 28.267 36.267 29.333 42.666 68.8 72 121.066 90.133 38.934 13.333 31.467 15.467-14.933 4.267z m333.333-56.534c-2.133-3.2-2.666-6.933-0.533-8.533 4.8-4.8-10.667-17.067-26.667-20.8-8.533-2.133-19.2-6.4-23.466-9.6-16-11.733-32-19.2-42.134-19.2-5.866 0-12.8-3.2-14.933-7.467-5.867-9.6-35.733-24.533-49.067-24.533-14.933 0-39.466-11.733-47.466-22.4-3.734-5.333-11.2-9.6-16.534-9.6-12.266 0-43.2-15.467-43.2-21.333 0-2.667-12.8-6.934-27.733-10.667-15.467-3.2-33.067-10.133-38.933-15.467s-20.267-12.8-32-16.533-26.134-11.2-32-16.533S331.2 739.2 315.733 736c-14.933-3.733-28.8-8.533-30.933-11.2-5.867-9.6-18.133-4.8-21.333 8.533-1.6 7.467-6.4 13.334-10.667 13.334-18.133 0 0-80.534 27.733-124.8 13.334-20.267 18.134-24 33.067-24.534 14.933 0 17.067 1.6 17.067 13.334 0 11.2 2.666 13.333 16 13.333 8.533 0 27.733 7.467 41.6 16 14.4 9.067 29.866 16 34.133 16 4.8 0 11.2 3.733 14.933 8s12.267 8 18.667 8 14.933 3.733 18.667 8 12.266 8 19.2 8c12.266 0 88.533 36.267 91.733 44.267 1.067 2.133 5.867 3.733 10.667 3.733 5.333 0 14.933 4.8 22.4 10.667s16.533 10.666 20.8 10.666 11.733 3.2 16 6.934c4.8 3.733 19.2 11.2 32.533 16.533s29.867 12.8 37.333 17.067c7.467 3.733 21.867 11.2 32 15.466 10.134 4.8 26.134 12.267 35.734 16.534s18.666 10.133 20.266 12.8c1.6 3.2 9.067 5.333 16 5.333s19.2 5.867 27.2 12.267l14.4 12.8-10.666 10.666c-38.934 38.934-105.067 80.534-110.934 70.4zM251.2 851.2c-14.933-59.733 2.133-71.467 19.2-13.867l10.667 37.334h-11.734c-9.6 0-13.333-4.267-18.133-23.467zM37.333 333.333c0-5.866 29.334-64.533 36.267-73.066 5.867-6.934 13.333-8.534 32.533-6.4 27.2 3.2 72-3.2 103.467-15.467 19.2-6.933 19.733-8 11.733-16-4.8-4.8-18.133-11.733-29.333-14.933-27.2-8-28.267-20.8-2.667-20.8 20.8 0 53.867 14.4 67.734 30.4 13.333 14.933 25.6 46.933 25.6 67.2v18.666l-30.4 2.667C235.2 307.2 204.8 312 184 317.333c-20.267 4.8-46.933 10.667-58.667 13.334-22.4 5.333-88 6.933-88 2.666zM106.667 208c12.8-16 20.8-21.333 32.533-21.333 10.133 0 15.467 2.666 15.467 8 0 4.266-3.2 8-7.467 8-3.733 0-18.133 5.866-32.533 13.333L89.6 229.867 106.667 208z" fill="#19D17F" p-id="16427"></path><path d="M385.6 1004.267c-24-6.934-28.267-10.134-28.267-21.334v-12.8l14.934 10.667c8.533 5.867 27.2 15.467 41.6 21.333 32.533 13.334 13.866 14.4-28.267 2.134zM293.333 928c0-11.733-2.666-16-9.6-16-11.733 0-22.4-20.8-22.4-42.667 0-24 8.534-19.2 24.534 12.267 8 14.933 20.266 35.733 27.733 45.333L326.4 944h-16.533c-14.934 0-16.534-1.6-16.534-16z m544.534-53.333C830.933 868.8 819.733 864 812.8 864c-6.4 0-13.867-2.667-15.467-5.333C793.6 852.8 750.4 832 742.4 832c-2.667 0-11.2-4.8-18.133-10.667C716.8 816 709.333 812.8 707.2 814.4c-1.6 1.6-3.2 0.533-3.2-2.667 0-3.733-3.2-6.4-7.467-6.4-10.133 0-55.466-20.266-59.2-26.666-1.6-3.2-7.466-5.334-12.266-5.334s-14.934-4.8-22.4-10.666S585.6 752 580.267 752c-4.8 0-9.6-1.6-10.667-3.733C566.4 740.8 490.133 704 478.4 704c-6.933 0-14.933-2.667-18.667-6.4-3.2-3.2-11.733-6.933-18.133-8s-15.467-5.333-20.267-9.6-11.733-8-16-8c-3.733 0-18.666-6.933-33.066-16-13.867-8.533-32.534-16-41.067-16-9.6 0-16.533-3.2-18.667-9.067-3.2-7.466-5.866-5.866-15.466 8C290.667 648 283.733 656 281.6 656c-9.067 0-3.733-37.867 6.4-48 5.867-5.867 10.667-12.8 10.667-15.467 0-6.933 41.6-41.6 61.333-51.733 8.533-4.267 26.133-9.6 38.4-11.2 19.733-2.667 24-1.067 33.067 9.6 5.866 6.933 12.266 21.333 14.4 31.467s9.066 29.866 16 43.733c41.6 82.667 119.466 112.533 212.266 82.133 46.934-15.466 65.067-17.066 77.334-6.933 4.8 4.267 26.666 14.933 48.533 24.533s43.733 20.8 48 24c4.267 3.734 20.267 11.2 34.667 16.534C897.6 759.467 916.8 769.6 925.333 776l15.467 12.8-13.867 20.267C911.467 832 860.8 885.333 854.4 885.333c-2.133-0.533-9.6-5.333-16.533-10.666z m-595.2-72c-4.267-41.6-0.534-87.467 9.066-121.067 4.8-15.467 8.534-20.267 18.134-20.267H281.6l-10.667 33.6C262.4 721.6 260.8 738.667 262.4 785.6c2.133 51.733 1.6 57.067-6.933 57.067-7.467 0-10.134-6.934-12.8-40zM11.2 436.267c4.8-34.134 14.933-75.734 24-98.134 6.933-16 8.533-16.533 46.933-19.733 21.867-2.133 45.334-5.867 52.267-8.533 22.933-9.067 121.067-28.267 126.4-24.534 8 4.267 7.467 0.534-2.133-22.4-10.667-25.6-21.867-37.866-46.4-50.133-21.334-11.2-64-13.333-86.4-4.8-18.134 6.4-19.2-6.4-2.134-18.133 13.334-9.6 73.6-11.734 73.6-3.2 0 3.2 5.867 5.333 12.8 5.333 22.4 0 29.867 5.867 29.867 21.867 0 13.333 2.133 15.466 15.467 15.466 12.8 0 16.533 3.2 24 21.334 19.733 49.6 6.933 118.933-27.734 150.4-8 6.933-20.266 20.8-27.2 29.866-9.6 13.334-17.066 17.067-30.4 17.067-9.6 0-18.133-2.667-19.2-5.867-1.6-4.266-21.866-1.6-65.6 8C74.667 457.6 37.333 464 26.667 464H6.933l4.267-27.733z" fill="#1ED094" p-id="16428"></path><path d="M909.333 792.533c-8.533-6.4-27.733-16.533-42.666-21.866-14.4-5.334-30.4-12.8-34.667-16.534-10.667-8.533-80-39.466-80-35.733 0 2.133-5.333-1.6-11.733-7.467L728 699.733l-37.333 12.8c-46.934 15.467-56 16-56 2.134 0-6.4 3.733-10.667 9.6-10.667 27.2-0.533 149.866-84.267 158.4-108.267 4.266-11.733 29.866-25.066 48-25.066 7.466 0 18.666 4.8 25.066 10.666s16 10.667 21.334 10.667c11.2 0 46.933 16.533 46.933 21.867 0 2.133 6.4 5.333 14.4 7.466 8 1.6 21.333 8.534 29.333 14.4 13.334 9.067 14.934 13.334 11.734 27.2-1.6 9.067-5.334 20.267-8 25.067-2.134 4.267-9.067 20.267-15.467 34.667-12.267 28.8-43.2 82.666-48 82.666-1.6 0-9.6-5.866-18.667-12.8z m-880-121.6C25.6 658.667 15.467 611.2 10.667 584 1.6 532.267 6.933 423.467 17.6 440.533c3.733 6.4 42.667 4.267 45.333-2.666 0.534-2.134 7.467-3.2 15.467-1.6 9.6 1.6 12.8 0.533 10.133-3.2-2.133-4.267-1.066-5.334 4.267-3.2 4.267 1.6 25.067-0.534 45.333-5.334 49.6-11.2 61.334-11.2 57.067 1.067-2.133 4.8 2.667 2.133 10.133-6.933C212.8 410.133 228.8 392 240 379.2c11.733-12.8 21.333-25.067 21.333-27.733s2.667-4.8 5.334-4.8c3.2 0 5.333 8.533 5.333 18.666 0 16.534-1.6 18.667-13.333 18.667-10.667 0-13.334 2.667-13.334 13.333 0 7.467-4.266 17.6-9.6 22.934C199.467 456.533 160.533 552 152 624.533l-3.2 30.4-48 3.734c-33.6 2.666-49.067 5.866-51.2 11.2-3.2 9.066-17.067 9.6-20.267 1.066z m409.067-56c-2.667-5.333-6.4-17.6-8.533-27.2-3.734-22.4-19.2-42.666-29.867-40-14.4 4.267-34.667 14.4-51.733 27.2l-17.6 12.8V571.2c0-12.8 2.133-16.533 10.666-16.533 5.867 0 10.667-3.2 10.667-6.934C352 537.067 406.4 512 428.8 512H448v28.267c0 14.933 1.6 40.533 3.2 56 3.733 28.266-3.2 37.866-12.8 18.666z" fill="#21CCB0" p-id="16429"></path><path d="M134.933 778.667c-6.933-18.667-27.2-21.867-41.6-6.934-8.533 8.534-9.6 8-19.2-4.266C68.8 760.533 56 734.933 45.333 710.4 21.867 653.867 24 648.533 73.067 643.2c19.733-2.667 41.6-4.267 48.533-4.8 7.467-0.533 11.733-3.733 11.733-10.667 0-5.333 2.667-9.066 6.4-8 3.734 1.6 9.6 22.4 13.334 50.134C156.267 696 163.2 728 167.467 740.8c4.8 12.8 8.533 29.867 8.533 38.4 0 13.867-1.6 15.467-17.6 15.467-14.4 0-18.667-2.667-23.467-16z m840-125.334c-10.133-6.933-25.066-14.4-33.066-16.533C934.4 635.2 928 632 928 629.867c0-4.8-35.2-21.867-44.8-21.867-11.733 0-35.2-13.867-30.933-18.667 2.133-2.133-3.734 0-13.334 4.8-9.066 4.267-17.6 11.2-19.2 14.934s-3.2-2.134-3.2-12.8c-0.533-13.334 4.8-28.267 15.467-44.8 17.6-28.267 40.533-93.334 45.867-131.734 3.2-24.533 3.733-25.066 21.333-25.066 16.533 0 18.133 1.6 18.133 14.933 0 12.8 3.734 16.533 22.934 24.533 12.266 5.867 25.6 12.8 29.866 16s17.067 8.534 29.334 11.2l21.866 5.334 1.6 37.333c2.134 46.4-13.333 144-25.6 158.4-1.6 2.133-11.733-1.6-22.4-9.067z" fill="#18C4C8" p-id="16430"></path><path d="M356.267 995.2c-72-25.067-140.8-65.067-188.267-110.4-32.533-30.933-84.8-97.6-92.8-117.867-4.8-12.266-3.733-14.4 9.067-18.133 8-2.133 17.066-4.267 19.733-4.8 21.867-2.667 40-10.133 40-16.533 0-15.467 13.867-6.934 20.8 12.8C201.6 843.733 262.933 913.6 379.733 985.6c8.534 4.8 14.934 12.267 14.934 16 0 3.2-0.534 6.4-1.067 5.867-1.067 0-17.6-5.867-37.333-12.267zM984 477.867c-11.733-3.2-25.067-8-29.333-11.2-16-10.667-45.334-22.934-49.067-20.8-2.667 1.6-4.8-6.4-4.8-17.6-0.533-19.2-1.067-19.2-7.467 9.066-8 33.6-8.533 30.4-11.2-53.866s-25.6-152.534-73.066-216.534C780.8 129.067 725.867 81.6 684.8 60.267c-18.133-9.6-28.8-18.667-28.8-24s3.2-9.6 7.467-9.6c15.466 0 118.4 48.533 134.933 63.466 5.333 4.8 19.2 15.467 30.933 24.534 56.534 42.133 113.6 114.666 146.134 185.066 18.666 40 25.066 62.934 43.2 144 9.6 45.334 8.533 46.4-34.667 34.134z" fill="#0DBCE1" p-id="16431"></path><path d="M398.4 1008c-8.533-2.667-18.133-6.933-21.333-9.6-3.734-2.667-12.8-6.4-20.8-8.533-11.734-2.667-14.934-6.4-14.934-17.067v-13.867L360 972.8c10.133 8 30.933 20.267 46.4 27.2 27.2 12.8 22.933 17.067-8 8zM277.333 904c0-23.467 4.8-23.467 20.267 0l11.733 18.667h-16c-14.933 0-16-1.6-16-18.667z m-23.466-35.733c-1.6-6.934-3.2-18.667-3.2-26.667 0-24.533 13.333-17.067 22.4 11.733L281.6 880h-12.267c-8 0-13.333-3.733-15.466-11.733zM179.2 824c-11.733-18.133-10.667-24 4.8-24 11.733 0 13.333 2.133 13.333 18.667 0 21.866-5.866 24-18.133 5.333z m60.8-32c0-21.333 12.8-26.133 18.133-6.4s3.734 25.067-7.466 25.067c-8.534 0-10.667-3.734-10.667-18.667z m0-41.067c0-41.066 30.4-137.6 42.667-137.6 2.133 0 5.333-4.8 6.933-10.666 2.133-8 7.467-10.667 19.733-10.667H326.4l-12.8 17.6c-27.733 35.733-47.467 83.733-54.933 133.333-3.734 21.867-18.667 28.267-18.667 8zM142.933 729.6c-3.2-12.8-6.4-50.667-6.4-84.267C136.533 596.267 139.2 576 148.8 544c18.133-59.2 41.067-102.4 78.933-147.733 18.667-22.4 36.267-49.6 40-60.8C275.2 309.333 288 307.733 288 333.333c0 19.734-9.6 45.334-17.067 45.334-2.133 0-4.266 3.2-4.266 7.466s-6.934 13.867-16 20.8c-8.534 7.467-16 15.467-16 17.067s-5.867 11.2-12.8 20.267C200 473.067 171.2 539.2 162.133 581.333c-8 38.934-8 77.334 1.067 145.6 3.2 20.8 2.133 25.067-4.8 25.067-5.333 0-11.2-8-15.467-22.4z m422.4-6.4C485.333 706.133 432 642.667 432 564.267 432 544 430.933 528 429.867 528c-7.467 0-42.667 18.133-66.134 34.133L336 581.333v-16c0-12.8 4.267-18.666 22.4-29.866 35.733-22.934 53.867-28.267 109.333-34.134 85.334-9.066 131.734-16.533 137.6-21.866 8-8 45.334-5.867 48.534 3.2 2.133 4.266 6.933 8 11.2 8 8.533 0 44.8 15.466 49.6 21.333 1.6 1.6 13.333 6.4 26.666 10.133s28.8 9.6 34.667 12.8C811.2 554.667 825.067 560 838.4 560h15.467l-21.334 31.467C788.267 656.533 703.467 713.6 634.667 724.8c-19.2 3.2-35.734 5.867-37.334 5.333-1.6 0-16-3.2-32-6.933zM267.2 276.8c-14.4-48.533-70.4-84.8-117.867-76.8-19.2 3.2-21.333 2.667-21.333-7.467s3.2-11.2 34.133-11.2c30.4 0 65.6 7.467 72.534 15.467 1.6 1.6 7.466 5.867 12.8 9.067 5.866 3.2 12.8 10.133 16 16 3.2 5.333 7.466 11.2 9.066 12.8C281.067 241.6 288 262.4 288 279.467c0 26.666-12.8 25.066-20.8-2.667z m-168-59.733c5.333-7.467 11.733-14.4 14.4-14.4 8 0 3.2 8.533-10.667 18.133l-14.4 10.667 10.667-14.4z" fill="#79E1CC" p-id="16432"></path><path d="M398.933 1008c-29.866-9.067-97.066-45.867-118.4-65.067L258.667 923.2l20.266-0.533c13.867 0 19.734 2.133 19.734 8 0 4.266 4.8 8 10.666 8S320 941.333 320 944c0 3.2 3.2 5.333 7.467 5.333s11.2 4.267 14.933 9.6c6.933 9.6 49.067 38.4 56 38.4 2.667 0 9.067 3.734 14.4 8 11.733 8.534 8 9.6-13.867 2.667zM209.067 872C200 859.2 188.8 841.6 185.6 833.6c-3.733-8-8-16-10.133-17.6-8.534-6.933-30.4-76.267-34.134-109.333-1.066-8.534-2.133-18.134-2.666-21.334-2.667-12.8 0.533-24 7.466-24 4.8 0 8.534 9.6 10.667 27.2 2.133 14.934 9.6 43.2 17.067 62.4 7.466 19.734 14.933 40.534 16.533 46.4 2.133 5.867 6.933 13.867 10.667 17.6S208 825.6 208 829.867s2.667 7.466 5.333 7.466c3.2 0 5.334 3.2 5.334 7.467s3.733 8.533 8 10.667c8 2.666 11.733 40.533 4.266 40.533-2.666-0.533-12.266-11.2-21.866-24z m607.466-297.067c-12.8-2.133-32.533-10.133-43.733-17.6S749.333 544 745.6 544c-7.467 0-43.2-12.267-46.933-16-5.334-5.333-29.867-16.533-42.134-18.667-6.933-1.066-15.466-6.4-19.2-11.733-5.333-6.933-8.533-7.467-13.866-3.733-6.4 4.8-61.334 18.133-75.2 18.133-2.134 0-4.267-4.267-4.267-10.133 0-6.934 4.8-11.2 17.6-13.334 34.667-6.4 84.267-34.666 115.733-66.133 28.8-28.8 64-86.4 64-105.067 0-5.866 5.334-8 18.667-8 16.533 0 18.667 1.6 18.667 13.334 0 10.133 3.733 13.866 14.933 16.533 24 5.333 45.867 13.867 51.733 21.333 3.2 3.734 17.067 8 30.934 10.134 28.266 4.266 27.733 3.2 19.2 55.466C888 471.467 867.2 536 851.733 560.533c-11.2 18.134-12.266 18.667-35.2 14.4z" fill="#74DCDF" p-id="16433"></path><path d="M401.6 1009.6c-6.933-1.067-12.267-4.8-12.267-8s-1.6-4.267-3.733-2.667c-1.6 2.134-6.4 1.067-10.133-1.6-3.2-3.2-11.734-6.933-17.6-8-6.4-1.066-17.6-6.933-25.6-12.8-7.467-6.4-17.067-11.2-20.8-11.2-4.267 0-7.467-2.133-7.467-5.333 0-2.667-2.667-5.333-5.867-5.333-10.133 0-79.466-64.534-79.466-74.134 0-3.2 5.333-5.866 12.266-5.866 15.467 0 41.067 26.133 41.067 41.6 0 9.6 3.2 11.733 16 11.733 9.6 0 17.6 3.2 19.2 8 2.133 4.267 6.4 8 10.667 8s7.466 4.8 7.466 10.667c0 7.466 3.734 10.666 11.2 10.666 5.867 0 21.334 7.467 34.134 16 12.8 9.067 25.6 16 28.266 16s8 3.734 11.734 8 5.866 7.467 4.8 7.467c-1.067-0.533-7.467-2.133-13.867-3.2zM202.133 860.267c-4.266-5.334-11.2-17.6-14.933-26.667-3.733-9.6-8.533-17.6-10.667-17.6s-3.733-4.8-4.266-10.667c-0.534-7.466 2.133-10.666 9.6-10.666 8 0 10.133 3.733 10.133 18.666S194.133 832 202.667 832s10.666 3.733 10.666 18.667c0 21.333-0.533 21.866-11.2 9.6z m688.534-462.4c0-4.8-9.6-8.534-29.334-11.2-16-1.6-29.333-5.867-29.333-8.534 0-5.866-28.267-18.133-54.933-22.933-11.2-2.133-18.667-5.867-17.067-9.067 2.133-2.666 2.133-4.8 0.533-4.8s-6.4 6.4-11.2 14.934c-8 13.866-8.533 12.8-4.266-22.934 11.2-104.533 1.066-154.666-43.734-216-26.133-35.2-81.066-74.666-118.4-85.866C565.867 26.667 560 22.4 560 14.4c0-9.067 2.667-9.6 28.267-6.4C728 27.2 851.2 139.2 887.467 280.533c11.2 43.734 17.066 124.8 9.066 124.8-3.2 0-5.866-3.2-5.866-7.466z" fill="#6CD5F1" p-id="16434"></path><path d="M388.267 1001.067c-8.534-3.2-14.934-7.467-14.934-10.134 0-5.866 1.067-5.333 20.267 4.267 26.133 12.8 22.4 17.067-5.333 5.867z m-49.6-22.4C312 964.267 256 924.8 256 920c0-1.6 8.533-2.667 18.667-2.667 12.8 0 18.666 2.667 18.666 8 0 4.267 4.8 8 10.667 8s10.667 2.667 10.667 5.334c0 3.2 3.733 5.333 8 5.333s8 3.733 8 8 3.2 8 6.933 8c9.6 0.533 31.467 20.267 29.333 26.667-1.066 3.733-12.8 0-28.266-8z m-128-109.867c-13.334-18.133-24-34.667-24-37.333s5.866-4.8 13.333-4.8c8.533 0 13.333 3.2 13.333 8 0 4.266 2.667 8 5.334 8 3.2 0 5.333 4.8 5.333 10.666S227.733 864 232 864c5.333 0 8 5.867 8 18.667 0 10.133-1.067 18.666-2.667 18.666S224 886.933 210.667 868.8z m207.466-370.133c2.667-23.467 1.6-29.334-4.266-29.334-4.267 0-17.6-8.533-29.867-18.666S359.467 432 356.8 432c-3.2 0-9.067-3.2-13.333-6.4-4.267-3.733-10.667-9.067-14.4-12.267-18.134-14.933-45.334-22.933-69.334-20.266l-25.066 3.2L253.333 368C269.867 343.467 272 336 272 306.667c0-28.8-2.133-36.8-17.067-59.2-30.4-44.267-82.666-60.8-129.066-40.534-27.734 12.8-27.2 10.134 6.4-29.333 28.8-34.133 86.933-82.133 128-105.067C341.333 27.2 399.467 11.2 496 7.467c62.933-2.667 75.733-1.6 102.4 7.466 85.867 30.4 153.6 110.4 167.467 198.4 3.2 19.2 2.133 21.334-8 21.334-8 0-11.2-3.2-11.734-11.734 0-6.933-3.2-20.8-6.933-30.933-6.4-18.133-6.933-17.6-10.133 26.133-2.667 33.067-7.467 53.334-18.667 77.334-28.8 60.8-62.4 89.6-134.933 113.6-40 13.333-48.534 18.666-79.467 49.6l-34.667 34.666 22.934 1.6c14.933 1.067 22.4 4.267 22.4 9.6 0 4.267-0.534 7.467-1.067 7.467-2.667 0-60.267 10.133-75.733 13.333l-15.467 3.2 3.733-29.866z" fill="#C8EEE9" p-id="16435"></path><path d="M528 501.867c0-8 5.333-10.667 24-13.334 35.733-5.866 93.333-36.8 124.8-67.733 29.333-29.867 62.4-89.6 67.733-123.2 2.667-14.933 5.867-20.267 13.334-20.267 12.266 0 12.8 13.867 2.666 48.534-26.666 88-90.666 151.466-178.666 177.6C542.4 515.2 528 514.667 528 501.867z" fill="#C8EEE9" p-id="16436"></path><path d="M341.333 978.667C265.6 938.133 213.867 885.333 175.467 808c-35.734-72-46.4-162.133-28.8-245.333 11.2-53.867 50.133-129.6 85.333-165.334 15.467-16 26.133-27.733 23.467-26.133-3.2 1.6-2.667-1.6 1.066-8 5.334-8 8.534-9.067 11.734-4.267 3.2 4.267 3.733 2.134 2.133-5.333-1.6-6.933 0-13.867 2.667-16 3.2-1.6 4.266-0.533 2.133 2.667-1.6 3.2 2.667 12.266 10.133 20.266s13.334 12.8 13.334 10.667 3.733 0 8.533 4.8 15.467 10.133 24 11.733 13.867 4.8 12.8 6.934c-1.6 2.666 2.133 5.866 8 8 5.867 1.6 10.667 5.866 10.667 9.066 0 2.667 3.2 4.267 6.4 3.2 3.733-1.6 12.8 3.2 19.733 9.6 7.467 6.934 15.467 10.667 18.133 9.067 3.2-1.6 3.734-0.533 1.6 3.2-2.666 4.267 1.6 8.533 12.267 12.8 9.067 3.2 16.533 8 16.533 10.133s3.734 2.667 8 1.067c4.267-2.133 6.4-5.333 4.8-8S451.2 448 456 448c5.333 0 6.933 2.667 4.8 6.933-2.133 3.2 1.067 1.6 7.467-3.733C480 441.067 480 441.067 480 452.8c0 18.133-31.467 69.867-42.667 69.867-18.666 0-72.533 33.066-102.933 62.933-101.333 99.733-102.933 259.733-2.667 360 18.667 18.667 39.467 37.867 46.934 42.667 25.066 16-1.6 9.066-37.334-9.6z m-67.733-672c0-11.734 1.067-16 2.133-9.067 1.067 6.4 1.067 16 0 21.333-1.6 4.8-2.666-0.533-2.133-12.266z" fill="#D1F3DF" p-id="16437"></path><path d="M432 520.533C432 518.4 437.867 504 445.333 488 466.667 443.733 505.6 411.2 560 393.067c72.533-24.534 105.6-52.8 135.467-115.734 13.866-29.866 16-40.533 15.466-77.333 0-69.333-27.733-123.2-83.2-163.2-11.733-8.533-19.2-15.467-16.533-15.467 12.8 0 61.333 34.134 85.333 59.734 95.467 100.8 94.4 250.666-1.6 351.466-48.533 50.667-98.133 72-188.266 80-27.734 2.134-56 5.867-62.4 8-6.934 1.6-12.267 1.6-12.267 0z" fill="#FFFFFF" p-id="16438"></path></svg>